<?xml version="1.0" encoding="utf-8"?>
<!-- Generator: Adobe Illustrator 23.0.0, SVG Export Plug-In . SVG Version: 6.00 Build 0)  -->
<svg version="1.1" id="Layer_1" xmlns="http://www.w3.org/2000/svg" xmlns:xlink="http://www.w3.org/1999/xlink" x="0px" y="0px"
	 viewBox="0 0 685 246" style="enable-background:new 0 0 685 246;" xml:space="preserve">
<style type="text/css">
	.st0{fill:#ffffff;}
	.st1{fill:#ffffff;}
</style>
<g>
	<polygon class="st0" points="120.1,7.2 5.4,77.3 5,77 5,144 62,174 62,116 179.8,43.3 	"/>
	<polygon class="st0" points="180,109.2 123,79.2 123,137.2 5.2,209.9 64.9,246 179.6,175.9 180,176.2 	"/>
</g>
<g>
	<path class="st1" d="M248.8,148.1c-6.4-0.5-11.4-1.1-14.8-1.7v-8.5c7.2,0.7,17.4,1.1,30.6,1.1c7,0,12.5-1.1,16.4-3.3
		c3.9-2.2,5.8-6.3,5.8-12.1v-7c0-9.6-5.1-14.5-15.3-14.5h-11c-8.8,0-15.5-1.9-20.1-5.8c-4.6-3.8-6.9-10.2-6.9-19v-5.8
		c0-9.4,2.5-16.1,7.5-20.4c5-4.2,12.4-6.3,22.2-6.3c4.2,0,9.2,0.3,15.1,0.9c5.9,0.6,10.7,1.3,14.4,2v8.3c-12.5-0.8-22-1.3-28.4-1.3
		c-6.9,0-12,1.2-15.3,3.7c-3.3,2.5-5,6.9-5,13.4v4.7c0,5.4,1.4,9.2,4.2,11.5c2.8,2.3,7,3.4,12.6,3.4h11.8c8.1,0,14.2,2.2,18.3,6.5
		c4.2,4.3,6.3,10.1,6.3,17.3v7.9c0,9.5-2.9,16.2-8.7,19.9c-5.8,3.8-13.7,5.6-23.7,5.6C260.7,148.9,255.3,148.6,248.8,148.1z"/>
	<path class="st1" d="M316.3,45.8h11.1v102.3h-11.1V45.8z"/>
	<path class="st1" d="M348.8,45.8h11.1v102.3h-11.1V45.8z"/>
	<path class="st1" d="M387.4,144.5c-4-2.7-6-8-6-15.8V66.3c0-7.2,1.9-12.5,5.8-15.7c3.9-3.2,8.7-4.9,14.3-4.9
		c14.8,0.3,26.4,0.6,34.6,1l8.2,0.3v8.9h-40c-7.9,0-11.8,4.1-11.8,12.2v24.2l45.7,0.7v8.5l-45.7,0.7v24c0,4.7,1.1,7.9,3.3,9.6
		c2.2,1.7,5.2,2.5,9,2.5h39.5v8.9c-17.6,0.9-31.6,1.4-42.1,1.4C396.4,148.6,391.4,147.2,387.4,144.5z"/>
	<path class="st1" d="M549.7,148.1L540,63.1l-24.6,84.9h-10.1l-25-84.2l-9.3,84.2h-10.7l11.7-102.3h11.3l27.2,88.4L537,45.8h11.4
		l12,102.3H549.7z"/>
	<path class="st1" d="M665.7,148.1L656,63.1l-24.6,84.9h-10.1l-25-84.2l-9.3,84.2h-10.7l11.7-102.3h11.3l27.2,88.4l26.7-88.4h11.4
		l12,102.3H665.7z"/>
</g>
<g>
	<path class="st0" d="M264.3,200.9l-3.3-28.7l-8.3,28.7h-3.4l-8.5-28.5l-3.1,28.5H234l3.9-34.6h3.8l9.2,29.9l9-29.9h3.9l4,34.6
		H264.3z"/>
	<path class="st0" d="M275.3,199.7c-1.4-0.9-2-2.7-2-5.3v-21.1c0-2.4,0.7-4.2,2-5.3c1.3-1.1,2.9-1.6,4.8-1.6c5,0.1,8.9,0.2,11.7,0.3
		l2.8,0.1v3H281c-2.7,0-4,1.4-4,4.1v8.2l15.5,0.2v2.9l-15.5,0.2v8.1c0,1.6,0.4,2.7,1.1,3.2c0.8,0.6,1.8,0.8,3.1,0.8h13.3v3
		c-6,0.3-10.7,0.5-14.2,0.5C278.3,201,276.6,200.6,275.3,199.7z M288.2,157.3h3.1l-5.9,6.4h-2.2L288.2,157.3z"/>
	<path class="st0" d="M314,183.8l10.7,17h-4.1l-8.9-14.2l-8.6,14.2H299l10.8-17.3l-10.9-17.3h4.1l9.1,14.5l8.7-14.5h4.1L314,183.8z"
		/>
	<path class="st0" d="M330.1,166.3h3.8v34.6h-3.8V166.3z"/>
	<path class="st0" d="M345.4,199.8c-1.7-0.9-3-2.7-3.9-5.2s-1.3-6.2-1.3-11.1c0-4.6,0.4-8.2,1.3-10.7c0.9-2.5,2.2-4.3,4-5.3
		c1.8-1,4.2-1.5,7.1-1.5c1.4,0,3.1,0.1,5,0.4s3.5,0.5,5,0.9v2.8c-1.1-0.2-2.5-0.3-4.2-0.5c-1.7-0.2-3.4-0.2-5.1-0.2
		c-2.3,0-4.2,0.4-5.5,1.2c-1.3,0.8-2.3,2.2-2.9,4.2c-0.6,2-0.9,5-0.9,8.9c0,4,0.3,7,0.9,9c0.6,2,1.5,3.4,2.8,4.1
		c1.3,0.7,3.1,1.1,5.5,1.1c4,0,7.1-0.2,9.4-0.6v2.8c-1.4,0.3-3.1,0.6-4.9,0.8s-3.6,0.3-5.3,0.3C349.4,201.1,347.1,200.7,345.4,199.8
		z"/>
	<path class="st0" d="M372.8,199.8c-1.9-0.9-3.3-2.5-4.2-5c-1-2.5-1.4-6.2-1.4-11.1c0-4.9,0.5-8.6,1.5-11.2c1-2.6,2.4-4.3,4.3-5.2
		c1.9-0.9,4.4-1.4,7.6-1.4c3.3,0,5.8,0.4,7.7,1.3c1.9,0.9,3.3,2.6,4.2,5.2c0.9,2.6,1.4,6.3,1.4,11.2c0,4.9-0.5,8.6-1.4,11.1
		c-1,2.5-2.4,4.2-4.2,5c-1.9,0.9-4.4,1.3-7.7,1.3S374.6,200.7,372.8,199.8z M386.2,196.8c1.3-0.7,2.3-2,2.9-4c0.6-2,0.9-5,0.9-9
		c0-4.2-0.3-7.3-0.9-9.3c-0.6-2-1.6-3.4-2.9-4.1c-1.3-0.7-3.3-1-5.8-1c-2.4,0-4.2,0.3-5.6,1c-1.3,0.7-2.4,2-3,4.1s-1,5.2-1,9.3
		c0,4,0.3,7.1,0.9,9c0.6,2,1.6,3.3,2.9,4c1.3,0.7,3.3,1,5.9,1C382.9,197.8,384.9,197.5,386.2,196.8z"/>
</g>
</svg>
