<?xml version="1.0" encoding="UTF-8" standalone="no"?>
<!DOCTYPE svg PUBLIC "-//W3C//DTD SVG 1.1//EN" "http://www.w3.org/Graphics/SVG/1.1/DTD/svg11.dtd">
<svg width="100%" height="100%" viewBox="0 0 305 58" version="1.1" xmlns="http://www.w3.org/2000/svg" xmlns:xlink="http://www.w3.org/1999/xlink" xml:space="preserve" xmlns:serif="http://www.serif.com/" style="fill-rule:evenodd;clip-rule:evenodd;stroke-linejoin:round;stroke-miterlimit:2;">
    <g transform="matrix(1,0,0,1,-235.555,-292.214)">
        <g>
            <g transform="matrix(1,0,0,1,198.103,276.25)">
                <g transform="matrix(1,0,0,1,99.522,45.843)">
                    <path d="M2.671,-28.766L7.685,-28.766L20.506,-9.246L20.588,-9.246L20.588,-28.766L25.971,-28.766L25.971,0L20.958,0L8.137,-19.479L8.054,-19.479L8.054,0L2.671,0L2.671,-28.766Z" style="fill:white;fill-rule:nonzero;"/>
                    <path d="M31.314,-28.766L52.107,-28.766L52.107,-24.04L36.902,-24.04L36.902,-16.766L50.915,-16.766L50.915,-12.123L36.902,-12.123L36.902,-4.726L52.107,-4.726L52.107,0L31.314,0L31.314,-28.766Z" style="fill:white;fill-rule:nonzero;"/>
                    <path d="M64.271,-28.766L69.367,-28.766L79.887,0L74.216,0L71.873,-6.37L61.764,-6.37L59.422,0L53.751,0L64.271,-28.766ZM70.641,-10.972L66.819,-21.903L66.737,-21.903L63.038,-10.972L70.641,-10.972Z" style="fill:white;fill-rule:nonzero;"/>
                    <path d="M105.365,-9.534L105.365,0L99.776,0L99.776,-8.26L97.311,-11.013L88.352,-11.013L88.352,0L82.763,0L82.763,-28.766L100.804,-28.766L105.201,-24.328L105.201,-15.616L102.406,-12.78L105.365,-9.534ZM88.352,-15.616L98.256,-15.616L99.694,-17.054L99.694,-22.643L98.256,-24.081L88.352,-24.081L88.352,-15.616Z" style="fill:white;fill-rule:nonzero;"/>
                    <path d="M109.885,-4.438L109.885,-8.548L115.392,-8.548L115.392,-6.123L116.748,-4.767L125.255,-4.767L126.652,-6.164L126.652,-10.931L125.296,-12.287L114.406,-12.287L109.968,-16.725L109.968,-24.328L114.406,-28.766L127.391,-28.766L131.83,-24.328L131.83,-20.177L126.323,-20.177L126.323,-22.643L124.967,-23.999L116.83,-23.999L115.474,-22.643L115.474,-18.41L116.83,-17.054L127.72,-17.054L132.158,-12.616L132.158,-4.52L127.638,0L114.324,0L109.885,-4.438Z" style="fill:white;fill-rule:nonzero;"/>
                    <path d="M136.679,-28.766L142.267,-28.766L142.267,-16.725L154.431,-16.725L154.431,-28.766L160.02,-28.766L160.02,0L154.431,0L154.431,-11.958L142.267,-11.958L142.267,0L136.679,0L136.679,-28.766Z" style="fill:white;fill-rule:nonzero;"/>
                    <path d="M164.951,-4.726L164.951,-24.04L169.677,-28.766L184.471,-28.766L189.197,-24.04L189.197,-4.726L184.471,0L169.677,0L164.951,-4.726ZM181.512,-4.767L183.608,-6.863L183.608,-21.903L181.512,-23.999L172.636,-23.999L170.54,-21.903L170.54,-6.863L172.636,-4.767L181.512,-4.767Z" style="fill:white;fill-rule:nonzero;"/>
                    <path d="M216.73,-9.534L216.73,0L211.141,0L211.141,-8.26L208.675,-11.013L199.717,-11.013L199.717,0L194.128,0L194.128,-28.766L212.168,-28.766L216.565,-24.328L216.565,-15.616L213.771,-12.78L216.73,-9.534ZM199.717,-15.616L209.62,-15.616L211.059,-17.054L211.059,-22.643L209.62,-24.081L199.717,-24.081L199.717,-15.616Z" style="fill:white;fill-rule:nonzero;"/>
                    <path d="M221.867,-28.766L242.66,-28.766L242.66,-24.04L227.455,-24.04L227.455,-16.766L241.468,-16.766L241.468,-12.123L227.455,-12.123L227.455,-4.726L242.66,-4.726L242.66,0L221.867,0L221.867,-28.766Z" style="fill:white;fill-rule:nonzero;"/>
                </g>
                <g>
                    <g transform="matrix(1,0,0,1,99.522,69.843)">
                        <path d="M0.24,-16.8L3.6,-16.8L7.776,-3.888L7.824,-3.888L12,-16.8L15.36,-16.8L9.384,0L6.216,0L0.24,-16.8Z" style="fill:rgb(239,7,83);fill-rule:nonzero;"/>
                    </g>
                    <g transform="matrix(1,0,0,1,113.082,69.843)">
                        <path d="M6.264,-16.8L9.24,-16.8L15.384,0L12.072,0L10.704,-3.72L4.8,-3.72L3.432,0L0.12,0L6.264,-16.8ZM9.984,-6.408L7.752,-12.792L7.704,-12.792L5.544,-6.408L9.984,-6.408Z" style="fill:rgb(239,7,83);fill-rule:nonzero;"/>
                        <path d="M17.064,-16.8L20.328,-16.8L20.328,-2.76L28.728,-2.76L28.728,0L17.064,0L17.064,-16.8Z" style="fill:rgb(239,7,83);fill-rule:nonzero;"/>
                        <path d="M30.168,-2.88L30.168,-16.8L33.432,-16.8L33.432,-4.008L34.656,-2.784L39.36,-2.784L40.584,-4.008L40.584,-16.8L43.848,-16.8L43.848,-2.88L40.968,0L33.048,0L30.168,-2.88Z" style="fill:rgb(239,7,83);fill-rule:nonzero;"/>
                        <path d="M46.968,-16.8L59.112,-16.8L59.112,-14.04L50.232,-14.04L50.232,-9.792L58.416,-9.792L58.416,-7.08L50.232,-7.08L50.232,-2.76L59.112,-2.76L59.112,0L46.968,0L46.968,-16.8Z" style="fill:rgb(239,7,83);fill-rule:nonzero;"/>
                    </g>
                </g>
            </g>
            <g transform="matrix(1,0,0,1,198.103,258.191)">
                <path d="M52.256,63.631L56.699,54.747L66.365,74.08L82.818,41.175L72.789,41.175L65.546,55.66L58.304,41.175L54.621,41.175L52.267,45.883L52.265,45.88L47.823,54.765L37.452,34.022L63.612,34.022L65.96,38.718L63.612,34.022L63.653,34.022L65.952,38.621L68.251,34.022L94.452,34.022L65.952,91.022L52.256,63.631Z" style="fill:white;"/>
            </g>
        </g>
    </g>
</svg>
